<svg id="Layer_1" enable-background="new 0 0 510.061 510.061" height="512" viewBox="0 0 510.061 510.061" width="512" xmlns="http://www.w3.org/2000/svg"><g><path d="m393.535 124.054-5.973-22.768 51.892-51.892 21.213 21.212-46.735 46.736z" fill="#ffdd54"/><path d="m510.061 75h-75v-75h30v45h45z" fill="#2e2654"/><path d="m249.84 278 .19-3.969-10-137.617-10.711-10.711c-22.369-22.37-52.103-35.04-83.722-35.678-31.548-.634-61.655 10.732-84.839 32.009-24.523 22.507-38.409 53.36-39.098 86.875-.691 33.574 12.559 66.427 36.287 90.071l182.083 183.56 8.785-183.17 1.215-19.446z" fill="#fb5553"/><path d="m458.46 208.909c-.688-33.515-14.574-64.368-39.098-86.875-23.186-21.277-53.291-32.64-84.839-32.009-31.619.638-61.353 13.309-83.727 35.683-.34.34-4.273 4.274-10.736 10.736l-.03-.03v346.126l.03.031 182.089-183.565c23.766-23.705 37-56.541 36.311-90.097z" fill="#e20059"/><g id="XMLID_114_"><g><path d="m81.78 426.28 3.949-23.161 132.725-132.725 21.213 21.213-132.724 132.724z" fill="#fff16b"/></g></g><path d="m0 510.061.342-84.629c-.022-12.412 5.137-24.544 14.153-33.198 9.036-8.672 20.866-13.145 33.312-12.62 22.39.96 40.331 17.835 43.157 39.483 21.648 2.826 38.523 20.769 39.483 43.158.533 12.444-3.948 24.274-12.619 33.31-8.636 8.998-20.736 14.155-33.207 14.155-.011 0-.02 0-.03 0z" fill="#38336b"/></g></svg>