<svg height="512" viewBox="0 0 512 512" width="512" xmlns="http://www.w3.org/2000/svg"><g id="BULINE"><circle cx="256" cy="256" fill="#32314b" r="256"/></g><g id="Icons"><path d="m281.08 510.78q-5.55.56-11.19.85c21.81-49.66-1.84-101.73-10.65-118.2a116 116 0 0 1 -14-48.65 123.28 123.28 0 0 1 6.15-45.44 84.78 84.78 0 0 1 4.83-11.83 5 5 0 1 1 8.84 4.67 68 68 0 0 0 -3 7.16 113.65 113.65 0 0 0 -6.81 44.9 106.22 106.22 0 0 0 12.8 44.47c9.14 17.07 33.14 69.95 13.03 122.07z" fill="#fff"/><path d="m378.77 419.72c-.06.12-.88 1.72-2 4.56a113.39 113.39 0 0 0 -7.82 47.5 100 100 0 0 0 1.6 13.22q-4.6 2.31-9.31 4.43a109.89 109.89 0 0 1 -2.24-17.11 122.58 122.58 0 0 1 8-50.61 69.34 69.34 0 0 1 2.95-6.66 5 5 0 1 1 8.84 4.67z" fill="#fff"/><path d="m504.15 294.31a96.29 96.29 0 0 0 -186.28-48.88c-12.73 48.52 3.5 137.82 48.57 159.11l-6.76 6.55a5.55 5.55 0 0 0 2.46 9.35l17.51 4.6a5.55 5.55 0 0 0 6.73-6.94l-2.66-9c49.71 3.55 107.7-66.26 120.43-114.79z" fill="#f6c752"/><ellipse cx="477.59" cy="268.1" fill="#f6d372" rx="16.64" ry="8.54" transform="matrix(.254 -.967 .967 .254 97.04 662)"/><ellipse cx="469.48" cy="298.98" fill="#f6d372" rx="12.14" ry="6.23" transform="matrix(.254 -.967 .967 .254 61.13 677.2)"/><path d="m387.72 409.21a48.94 48.94 0 0 1 -12.86-1.58c-51.44-13.5-70.49-110.76-57-162.2a96.29 96.29 0 0 1 117.58-68.7 99.19 99.19 0 0 1 12.2 4.08 96.31 96.31 0 0 0 -104.94 71.13c-12.4 47.23 2.65 133.06 45.02 157.27z" fill="#f7bb38"/><path d="m153.05 472.32a109.89 109.89 0 0 1 -2.29 17.11q-4.71-2.12-9.31-4.43a100 100 0 0 0 1.62-13.22 113 113 0 0 0 -7.82-47.5c-1.17-2.9-2-4.51-2-4.57a5 5 0 0 1 8.85-4.66 69.34 69.34 0 0 1 3 6.66 122.58 122.58 0 0 1 7.95 50.61z" fill="#fff"/><path d="m7.85 294.31a96.29 96.29 0 1 1 186.28-48.88c12.73 48.52-3.5 137.82-48.57 159.11l6.76 6.55a5.55 5.55 0 0 1 -2.46 9.35l-17.51 4.56a5.55 5.55 0 0 1 -6.73-6.94l2.66-9c-49.71 3.59-107.7-66.22-120.43-114.75z" fill="#3586cb"/><ellipse cx="34.41" cy="268.1" fill="#41c0e3" rx="8.54" ry="16.64" transform="matrix(.967 -.254 .254 .967 -66.92 17.51)"/><ellipse cx="42.52" cy="298.98" fill="#41c0e3" rx="6.23" ry="12.14" transform="matrix(.967 -.254 .254 .967 -74.49 20.58)"/><path d="m124.28 409.21a48.94 48.94 0 0 0 12.86-1.58c51.44-13.5 70.49-110.76 57-162.2a96.29 96.29 0 0 0 -117.58-68.7 99.19 99.19 0 0 0 -12.2 4.08 96.31 96.31 0 0 1 105 71.13c12.34 47.23-2.71 133.06-45.08 157.27z" fill="#366fca"/><path d="m384.68 48.08a74.49 74.49 0 0 0 -105.33 0l-24 24-24-24a74.5 74.5 0 0 0 -105.34 0 74.48 74.48 0 0 0 0 105.34l24 24 93.89 93.88a16.19 16.19 0 0 0 22.91 0l93.88-93.88 24-24a74.48 74.48 0 0 0 -.01-105.34z" fill="#db1b1b"/><ellipse cx="356.99" cy="61.17" fill="#e83434" rx="8.66" ry="16.86" transform="matrix(.707 -.707 .707 .707 61.31 270.34)"/><ellipse cx="379.86" cy="84.04" fill="#e83434" rx="6.32" ry="12.3" transform="matrix(.707 -.707 .707 .707 51.83 293.21)"/><path d="m264.24 273.39a15.79 15.79 0 0 0 2.57-2.09l23-23-17.81-17.8-53.08-53.09-24-24a74.52 74.52 0 0 1 18.22-118.72 74.49 74.49 0 0 0 -87.14 118.73l24 24 93.9 93.88a16.15 16.15 0 0 0 2.56 2.09l-10.89 14.93a6.93 6.93 0 0 0 5.61 11h28.35a6.93 6.93 0 0 0 5.6-11z" fill="#bf1919"/><path d="m339.69 94.11a48.57 48.57 0 0 0 -68.69 0l-15.65 15.65-15.65-15.65a48.57 48.57 0 0 0 -68.69 0 48.57 48.57 0 0 0 0 68.69l15.65 15.65 57.24 57.23a16.19 16.19 0 0 0 22.91 0l57.19-57.23 15.65-15.65a48.57 48.57 0 0 0 .04-68.69z" fill="#f58d89"/><path d="m272 230.5-5.18 5.18a16.19 16.19 0 0 1 -22.91 0l-57.24-57.24-15.67-15.64a48.56 48.56 0 0 1 0-68.69c.85-.85 1.73-1.67 2.63-2.45a74.59 74.59 0 0 0 21.27 61.76l24 24z" fill="#db7d7d"/></g></svg>