<svg id="Layer_1" enable-background="new 0 0 510 510" height="512" viewBox="0 0 510 510" width="512" xmlns="http://www.w3.org/2000/svg"><g><g><g><path d="m90.001 211.273c-4.315-.789-9.251-1.273-15.001-1.273-5 0-10 0-15 0v137.713 102.287l97.5 10 97.5-10 10-112.5-10-112.5-76.25-27z" fill="#38336b"/><path d="m255.007 225c-.002 0-.005 0-.007 0v140.352 84.648h150.153 44.847c0-45.904 0-91.809 0-137.713 0-34.096 0-68.191 0-102.287-5 0-10 0-15 0-5.787 0-10.75.491-15.085 1.289l-79.915-17.789z" fill="#2e2654"/><path d="m60 450v60h150.153 44.847l10-30-10-30c-50.051 0-100.103 0-150.153 0-14.95 0-29.898 0-44.847 0z" fill="#c3ffcb"/><path d="m450 450c-50.051 0-100.103 0-150.153 0-14.949 0-29.897 0-44.847 0v60h150.153 44.847c0-20 0-40 0-60z" fill="#4ff6d8"/><path d="m110.625 15v146.542 57.001c11.152 5.546 22.55 8.14 35.017 5.481 12.227-2.607 22.328-10.645 34.889-12.845 12.837-2.248 26.771-1.642 39.142 2.618 12.267 4.224 21.833 11.202 35.327 11.203l10-105-10-105c-48.125 0-96.25 0-144.375 0z" fill="#a65542"/><path d="m278.299 219.084c19.465-9.734 42.38-12.439 63.102-4.664 9.378 3.519 17.546 9.359 27.76 10.326 11.129 1.053 20.345-1.294 30.215-6.202 0-48.848 0-97.695 0-146.542 0-19.001 0-38.001 0-57.002-48.125 0-96.25 0-144.375 0v144.769 65.231c8.533 0 15.717-2.126 23.298-5.916 4.781-2.391-3.85 1.925 0 0z" fill="#914236"/><path d="m90 0v144.112 67.163c10.926 1.998 19.725 7.928 30 11.52 0-14.266 0-28.53 0-42.796h45v35.889c9.5-4.146 19.664-5.888 30-5.889 0-10 0-20 0-30h45v42.794c4.823 1.687 9.916 2.206 15 2.206l10-112.5-10-112.499c-52.188 0-104.375 0-156.563 0-2.812 0-5.625 0-8.437 0zm75 150c-15 0-30 0-45 0 0-15 0-30 0-45h45zm0-75c-15 0-30 0-45 0 0-15 0-30 0-45h45zm75 75c-15 0-30 0-45 0 0-15 0-30 0-45h45zm-45-75c0-15 0-30 0-45h45v45c-15 0-30 0-45 0z" fill="#bb6c55"/><path d="m270 222.799c0-14.266 0-28.533 0-42.799h45v30c10.337 0 20.498 1.74 30 5.885 0-11.962 0-23.923 0-35.885h45v42.797c10.275-3.593 19.074-9.524 30-11.522 0-48.037 0-96.074 0-144.112 0-22.388 0-44.775 0-67.163-52.188 0-104.375 0-156.563 0-2.812 0-5.625 0-8.437 0v140.352 84.648c5.084 0 10.177-.515 15-2.201zm75-192.799h45v45c-15 0-30 0-45 0 0-15 0-30 0-45zm0 75h45v45c-15 0-30 0-45 0 0-15 0-30 0-45zm-75-75h45v45c-15 0-30 0-45 0 0-15 0-30 0-45zm0 75h45v45c-15 0-30 0-45 0 0-15 0-30 0-45z" fill="#a65542"/></g></g><g><path d="m245.384 303.617c-18.308-18.308-47.69-18.792-66.584-1.452-20.274 18.607-20.531 50.546-1.038 69.971l77.238 77.864 14.385-77.996-14.385-58.771c-5.68-5.679-9.392-9.391-9.616-9.616z" fill="#ffdadf"/><path d="m331.2 302.165c-18.894-17.34-48.276-16.855-66.584 1.452-.225.225-3.936 3.937-9.616 9.616v136.767l77.238-77.864c19.493-19.425 19.237-51.364-1.038-69.971z" fill="#f9c1da"/></g></g></svg>