<svg id="Layer_1" enable-background="new 0 0 510 510" height="512" viewBox="0 0 510 510" width="512" xmlns="http://www.w3.org/2000/svg"><g><g><path d="m30 195v156.261 153.96 4.78h140.351 84.649l10-157.5-10-157.501-112.5-10z" fill="#c3ffcb"/><path d="m480 195-112.5-10-112.5 10v156.261 153.96 4.78h45l37.5-10 37.5 10h105c0-52.087 0-104.174 0-156.261 0-51.32 0-102.64 0-153.959 0-1.595 0-3.188 0-4.781z" fill="#4ff6d8"/><path d="m89.706 195 29.065 113.491 17.471 13.12 13.068-14.794-28.636-111.817-15.674-15z" fill="#e7f9fb"/><path d="m209.807 195-27.828 111.614 10.301 14.293 20.088-12.175 28.356-113.732-15.724-15z" fill="#e7f9fb"/><path d="m300 81.088-10 4.455 10 4.457 36.77 10 36.77-10c35.719-8.536 61.46-42.506 61.46-79 0-3.667 0-7.333 0-11-18.667 0-37.333 0-56 0-43.499 0-79 38.186-79 81.088z" fill="#ffc178"/><path d="m136.46 90 35.54 10 38-10 10-4.417-10-4.495c0-43.63-35.37-81.088-79-81.088h-56v11c0 37.6 26.275 70.591 61.46 79z" fill="#ffdd54"/><path d="m255 15c-24.967 0-45 22.716-45 47.088v27.912l22.5 10 22.5-10 10-37.5z" fill="#fff16b"/><path d="m300 62.088c0-24.372-20.033-47.088-45-47.088v75l22.5 10 22.5-10c0-9.304 0-18.608 0-27.912z" fill="#ffdd54"/><path d="m0 90v105h137.257 117.743l10-52.5-10-52.5c-45.752 0-91.505 0-137.257 0-39.248 0-78.495 0-117.743 0z" fill="#4ff6d8"/><path d="m510 90c-45 0-90 0-135 0l-34.333 10-40.667-10h-45v105h137.257 117.743c0-35 0-70 0-105z" fill="#00d5dd"/><path d="m300 510h75c0-55.686 0-111.372 0-167.058 0-40.826 0-81.652 0-122.479 0-43.488 0-86.976 0-130.464-25 0-50 0-75 0v167.058 122.479z" fill="#ffdd54"/></g><path d="m228.511 310.071c-15.678-14.389-40.059-13.987-55.251 1.205-.187.186-3.267 3.267-7.98 7.979-4.713-4.713-7.793-7.793-7.979-7.979-15.192-15.192-39.573-15.594-55.251-1.205-16.824 15.44-17.036 41.943-.861 58.062l64.091 64.611 64.092-64.611c16.176-16.119 15.963-42.621-.861-58.062z" fill="#fb5553"/></g></svg>