<svg id="Layer_1" enable-background="new 0 0 510 510" height="512" viewBox="0 0 510 510" width="512" xmlns="http://www.w3.org/2000/svg"><g><path d="m137.293 330c5.833 35 11.667 70 17.5 105l50.103 10 50.104-10 10-52.5-10-52.5-55-10z" fill="#fff16b"/><path d="m310 320-55 10v105l50.103 10 50.104-10c5.833-35 11.667-70 17.5-105z" fill="#ffdd54"/><path d="m154.793 435c4.167 25 8.333 50 12.5 75h87.707l10-37.5-10-37.5c-33.402 0-66.805 0-100.207 0z" fill="#ffdd54"/><path d="m355.207 435c-33.402 0-66.805 0-100.207 0v75h87.707c4.167-25 8.333-50 12.5-75z" fill="#ffc178"/><path d="m180 195h-45c-.001 32.089 26.339 59.154 58.427 59.979 15.506.4 31.062.021 46.573.021.001-32.698-27.303-60-60-60z" fill="#c3ffcb"/><path d="m270 225h45c32.698 0 60-27.302 60-60-15 0-30 0-45 0-32.698 0-60 27.302-60 60z" fill="#4ff6d8"/><g><path d="m251 121.75-10.998 3.19c-.001 48.781-.001 108.562-.002 157.343v17.717l7.5 10 7.5-10 10-86.736-10-72.28z" fill="#bb6c55"/><path d="m261.083 122.667-6.083 18.317v141.299 17.717l7.5 10 7.5-10c.001-51.919.001-114.836.002-166.755 0-2.769 0-5.537 0-8.306z" fill="#a65542"/></g><path d="m105 300v30h149.913.087l10-15-10-15c-49.971 0-99.942 0-149.913 0-.029 0-.058 0-.087 0z" fill="#ffdd54"/><path d="m405 300c-49.971 0-99.942 0-149.913 0-.029 0-.058 0-.087 0v30h149.913.087c0-10 0-20 0-30z" fill="#ffc178"/><g><path d="m246.553 12.39c-16.084-16.083-41.895-16.508-58.493-1.276-17.811 16.346-18.035 44.404-.911 61.468l67.851 68.402 12.637-68.518-12.637-51.628c-4.99-4.99-8.25-8.251-8.447-8.448z" fill="#fb5553"/><path d="m321.94 11.114c-16.599-15.232-42.409-14.807-58.493 1.276-.197.197-3.457 3.458-8.447 8.448v120.146l67.852-68.402c17.124-17.064 16.899-45.122-.912-61.468z" fill="#e20059"/></g></g></svg>