<svg id="Layer_1" enable-background="new 0 0 512.004 512.004" height="512" viewBox="0 0 512.004 512.004" width="512" xmlns="http://www.w3.org/2000/svg"><g><path d="m463.296 147.962c27.064 0 48.907-22.003 48.707-49.076-.189-25.407-20.669-48.34-50.141-48.34 0-29.475-22.943-49.952-48.34-50.14-.125-.001-.249-.001-.374-.001-26.9 0-48.703 21.766-48.701 48.707l-.001 67.179-20.134 20.134c-40.311-13.85-85.292-3.495-115.861 27.071l-9.63 9.63-9.628-9.629c-43.427-43.425-113.929-44.105-157.159-1.51-43.9 43.254-44.185 113.838-.597 157.429l54.408 54.408-47.584 47.584-19.661-19.661c-8.501-8.501-23.083-3.771-24.969 8.108l-13.445 84.698c-1.567 9.873 6.981 18.427 16.86 16.86l84.698-13.446c11.873-1.885 16.61-16.463 8.106-24.969l-19.92-19.92 47.584-47.583 66.792 66.792c8.028 8.026 21 8.026 29.025 0l87.979-87.979c2.93-2.93 2.93-7.678.001-10.606s-7.678-2.93-10.606-.001l-87.98 87.979c-2.163 2.163-5.648 2.163-7.811-.001-5.526-5.526-145.368-145.368-152.871-152.871-37.683-37.681-37.457-98.722.517-136.136 37.384-36.834 98.404-36.19 136.024 1.432l10.515 10.514c5.361 5.359 14.083 5.36 19.444-.001l10.514-10.514c24.703-24.704 60.249-34.193 93.23-25.655l-12.624 12.624c-25.666-3.636-51.623 4.985-70.135 23.501l-10.518 10.516c-11.162 11.168-29.213 11.175-40.389-.007l-10.507-10.507c-31.894-31.892-83.554-32.499-115.162-1.356-32.125 31.653-32.344 83.215-.441 115.121l40.412 40.41c2.928 2.928 7.677 2.927 10.606 0 2.929-2.93 2.929-7.678 0-10.607l-40.411-40.409c-25.996-26-25.841-68.013.361-93.829 25.763-25.383 67.942-24.808 94.028 1.278l10.506 10.505c17.009 17.017 44.568 17.051 61.604.007l10.517-10.515c12.244-12.245 28.455-19.215 45.301-19.88l-92.369 92.369c-8.723 8.725-8.769 22.9 0 31.671 8.765 8.763 22.941 8.727 31.671 0l107.368-107.368c27.891 25.076 29.384 68.791 2.417 95.758l-135.701 135.702-70.54-70.541c-2.929-2.927-7.677-2.929-10.607 0-2.929 2.93-2.929 7.678 0 10.607l70.615 70.615c5.806 5.806 15.257 5.808 21.063.002l135.779-135.779c32.886-32.886 31.283-86.081-2.406-116.983l10.479-10.479c39.573 36.844 40.933 99.397 2.394 137.934l-40.144 40.145c-2.93 2.929-2.93 7.678-.001 10.606 2.93 2.929 7.679 2.93 10.606.001l40.146-40.145c44.265-44.267 43.189-116.268-2.391-159.152l12.302-12.302h67.18zm-448.237 348.579 13.306-83.816c8.979 8.979 64.117 64.117 70.51 70.51zm64.266-54.07-10.456-10.456 47.584-47.584 10.457 10.457zm300.122-393.359c0-18.62 15.06-33.707 33.705-33.707.086 0 .173 0 .259.001 18.445.136 33.451 15.489 33.451 34.224v5.925c0 5.509 4.482 9.991 9.991 9.991h5.926c18.734 0 34.087 15.006 34.224 33.451.139 18.735-14.975 33.965-33.707 33.965h-58.621c.929-6.815-1.255-13.731-6.341-18.888h-.001c-4.874-4.874-11.863-7.298-18.887-6.337zm-145.315 239.62c-2.87 2.87-7.572 2.884-10.456 0-2.95-2.949-2.815-7.642 0-10.456 6.086-6.086 147.622-147.622 153.595-153.595 2.883-2.883 7.574-2.882 10.456 0 2.859 2.858 2.906 7.552-.021 10.477-5.062 5.062-142.049 142.049-153.574 153.574z"/></g></svg>