<svg height="480pt" viewBox="0 -114 480 480" width="480pt" xmlns="http://www.w3.org/2000/svg"><path d="m240 251.242188 123.269531-135.007813c25.027344-27.410156 24.066407-69.65625-2.179687-95.898437-27.109375-27.113282-71.066406-27.113282-98.179688 0l-22.910156 22.90625-22.910156-22.910157c-27.109375-27.109375-71.070313-27.109375-98.179688 0-26.246094 26.246094-27.207031 68.492188-2.179687 95.902344zm0 0" fill="#e65d52"/><g fill="#565656"><path d="m0 115.242188h16v16h-16zm0 0"/><path d="m284.445312 134.535156c-7 .003906-13.652343-3.0625-18.203124-8.382812l-19.742188-23.035156c-1.507812-1.867188-3.8125-2.902344-6.210938-2.792969-2.382812.035156-4.625 1.136719-6.109374 3l-7.039063 8.789062c-4.535156 5.710938-11.433594 9.027344-18.726563 9.003907h-.382812c-7.425781-.089844-14.382812-3.640626-18.820312-9.597657l-20.078126-26.765625c-1.664062-2.214844-4.355468-3.414062-7.117187-3.167968-2.761719.25-5.199219 1.914062-6.4375 4.390624l-22.632813 45.265626h-100.945312v-16h91.054688l18.210937-36.421876c3.71875-7.441406 11.027344-12.421874 19.308594-13.171874 8.285156-.746094 16.367187 2.851562 21.355469 9.507812l20.078124 26.761719c1.480469 1.988281 3.796876 3.167969 6.273438 3.199219 2.46875.015624 4.808594-1.085938 6.367188-3l7.039062-8.789063c4.460938-5.589844 11.1875-8.890625 18.335938-9 7.140624-.097656 13.960937 2.972656 18.625 8.378906l19.742187 23.03125c1.742187 2.035157 4.390625 3.0625 7.050781 2.734375s4.976563-1.964844 6.175782-4.363281l8.898437-17.785156c3.828125-7.648438 11.4375-12.6875 19.976563-13.21875 8.539062-.53125 16.714843 3.519531 21.460937 10.636719l14.328125 21.5h91.71875v16h-100.28125l-19.078125-28.621094c-1.582031-2.371094-4.308594-3.722656-7.152344-3.546875-2.847656.179687-5.382812 1.855469-6.660156 4.40625l-8.898437 17.785156c-3.585938 7.199219-10.546876 12.113281-18.53125 13.085937-.980469.121094-1.964844.183594-2.953126.183594zm0 0"/><path d="m464 115.242188h16v16h-16zm0 0"/></g></svg>