<?xml version="1.0"?>
<svg xmlns="http://www.w3.org/2000/svg" id="Icons" viewBox="0 0 74 74" width="512" height="512"><path d="M67.968,72H6.032a1,1,0,0,1-1-1V56.549a7.2,7.2,0,0,1,7.193-7.194H61.774a7.2,7.2,0,0,1,7.193,7.194V71A1,1,0,0,1,67.968,72ZM7.032,70H66.968V56.549a5.2,5.2,0,0,0-5.193-5.194H12.226a5.2,5.2,0,0,0-5.193,5.194Z"/><path d="M61.74,51.35a1,1,0,0,1-1-1V34.87a3.134,3.134,0,0,0-3.13-3.13H16.39a3.134,3.134,0,0,0-3.13,3.13V50.35a1,1,0,0,1-2,0V34.87a5.136,5.136,0,0,1,5.13-5.13H57.61a5.136,5.136,0,0,1,5.13,5.13V50.35A1,1,0,0,1,61.74,51.35Z"/><path d="M41,31.742a1,1,0,0,1-1-1V15H34V30.742a1,1,0,0,1-2,0V15a2,2,0,0,1,2-2h6a2,2,0,0,1,2,2V30.742A1,1,0,0,1,41,31.742Z"/><path d="M37,11.839A3.538,3.538,0,0,1,33.466,8.3c0-1.573,2.063-4.875,2.695-5.849a1.039,1.039,0,0,1,1.678,0c.632.974,2.695,4.275,2.695,5.849A3.538,3.538,0,0,1,37,11.839Zm0-6.925A11.781,11.781,0,0,0,35.466,8.3a1.534,1.534,0,1,0,3.067,0A11.744,11.744,0,0,0,37,4.914Z"/><path d="M71.064,72H2.936a1,1,0,0,1,0-2H71.064a1,1,0,0,1,0,2Z"/><path d="M37,15a1,1,0,0,1-1-1V10.839a1,1,0,1,1,2,0V14A1,1,0,0,1,37,15Z"/><path d="M57.641,65a8.453,8.453,0,0,1-5.776-2.21,6.676,6.676,0,0,0-9.1,0,8.646,8.646,0,0,1-11.547,0,6.673,6.673,0,0,0-9.1,0,8.643,8.643,0,0,1-11.544,0A6.509,6.509,0,0,0,6.032,61a1,1,0,1,1,0-2A8.444,8.444,0,0,1,11.8,61.21a6.669,6.669,0,0,0,9.093,0,8.646,8.646,0,0,1,11.547,0,6.673,6.673,0,0,0,9.1,0,8.65,8.65,0,0,1,11.549,0,6.679,6.679,0,0,0,9.1,0A8.458,8.458,0,0,1,67.968,59a1,1,0,0,1,0,2,6.518,6.518,0,0,0-4.551,1.791A8.458,8.458,0,0,1,57.641,65Z"/><path d="M53.49,44.6a6.923,6.923,0,0,1-4.738-1.808,5.136,5.136,0,0,0-7.022,0,7.107,7.107,0,0,1-9.471,0,5.134,5.134,0,0,0-7.021,0,7.1,7.1,0,0,1-9.469,0A4.975,4.975,0,0,0,12.26,41.4a1,1,0,0,1,0-2,6.916,6.916,0,0,1,4.734,1.808,5.13,5.13,0,0,0,7.018,0,7.107,7.107,0,0,1,9.471,0,5.134,5.134,0,0,0,7.021,0,7.11,7.11,0,0,1,9.473,0,5.139,5.139,0,0,0,7.026,0A6.923,6.923,0,0,1,61.74,39.4a1,1,0,1,1,0,2,4.982,4.982,0,0,0-3.513,1.389A6.927,6.927,0,0,1,53.49,44.6Z"/><path d="M51.708,31.74a1,1,0,0,1-.649-.239c-.56-.477-5.476-4.761-5.712-8.142h0a4.046,4.046,0,0,1,6.361-3.591,4.065,4.065,0,0,1,5.271.539,4.022,4.022,0,0,1,1.089,3.052c-.236,3.381-5.152,7.664-5.712,8.142A1,1,0,0,1,51.708,31.74Zm-4.366-8.52c.12,1.713,2.522,4.473,4.366,6.181,1.844-1.71,4.247-4.472,4.366-6.181a2.046,2.046,0,0,0-.557-1.549,2,2,0,0,0-3.027.1,1.035,1.035,0,0,1-1.563,0,2.012,2.012,0,0,0-3.027-.1,2.044,2.044,0,0,0-.557,1.549Z"/><path d="M22.292,31.74a1,1,0,0,1-.649-.239c-.56-.478-5.476-4.761-5.712-8.142a4.022,4.022,0,0,1,1.089-3.052,4.065,4.065,0,0,1,5.271-.539,4.046,4.046,0,0,1,6.361,3.591h0C28.417,26.74,23.5,31.024,22.94,31.5A1,1,0,0,1,22.292,31.74ZM19.98,21a2.068,2.068,0,0,0-1.5.672,2.046,2.046,0,0,0-.557,1.549c.12,1.713,2.522,4.472,4.365,6.181,1.844-1.71,4.247-4.472,4.367-6.181a2.044,2.044,0,0,0-.557-1.549,2.012,2.012,0,0,0-3.027.1,1,1,0,0,1-.782.376h0a1,1,0,0,1-.782-.377A1.94,1.94,0,0,0,19.98,21Zm7.675,2.29h0Z"/></svg>
